PathFileType	4	(X/Y/Z)	OpenSim_Sub07_EMGStiffKnee_Accel.trc
DataRate	CameraRate	NumFrames	NumMarkers	Units	OrigDataRate	OrigDataStartFrame	OrigNumFrames
100	100	41	8	m	100	2771	7388
Frame#	Time	torso_imu_offset_imu	pelvis_imu_offset_imu	tibia_r_imu_offset_imu	femur_r_imu_offset_imu	tibia_l_imu_offset_imu	femur_l_imu_offset_imu	toes_r_imu_offset_imu	toes_l_imu_offset_imu
				X1	Y1	Z1	X2	Y2	Z2	X3	Y3	Z3	X4	Y4	Z4	X5	Y5	Z5	X6	Y6	Z6	X7	Y7	Z7	X8		Y8	Z8	

2771	27.70000000	-9.14405308	-0.25113140	6.15380236	9.00649216	0.06643964	1.63496318	9.96610972	0.23018081	-0.03991354	7.71889291	-7.22325929	0.44360619	10.62280424	-0.96539273	-0.17155276	9.58472443	2.06784450	-1.23594093	23.93492980	-4.16279655	2.43111364	5.29674742	1.58069488	11.01745865
2772	27.71000000	-9.29587643	-0.18546645	6.12655788	9.17240085	0.02907838	1.72860799	9.55699606	1.93678377	0.36446609	8.11898214	-9.59004751	-0.07229135	10.46416084	-0.76866359	-0.24110159	9.63278611	1.87258344	-1.20645164	24.30655154	-4.09348715	0.72205276	5.25441917	1.61903032	11.21573050
2773	27.72000000	-9.41833251	-0.14822656	6.03850217	9.24216872	0.04584611	1.74418760	9.74972034	3.57502457	-0.70604817	8.88152071	-11.64756310	-0.47103808	10.50013090	-0.71320322	-0.20169082	9.88997789	1.56537882	-1.44210976	22.54522815	-3.24795345	-1.79124798	5.63126898	1.58214070	11.09338442
2774	27.73000000	-9.60736086	-0.16699923	5.98430880	9.20041025	0.16505504	1.57456704	9.26841502	3.74983964	-1.30392723	10.04574570	-11.86354271	-1.10872436	10.88712309	-0.87989728	-0.11168300	10.19274872	1.70087950	-1.89151785	20.45335305	-2.33956225	-3.93783936	5.60619272	1.34104991	10.94915210
2775	27.74000000	-9.64979754	-0.12226668	6.13275289	9.37904287	0.31924631	1.24305368	7.89894620	2.59970342	-0.94826776	10.83154209	-11.58785134	-2.58613559	11.12408630	-0.75831672	0.05607700	10.08755926	1.70061295	-2.18326134	20.09104519	-1.13978289	-5.53669983	5.32298650	1.14272393	11.25536844
2776	27.75000000	-9.83932548	0.03183690	6.55495044	9.86168097	0.31386558	1.00950692	6.83446400	1.62580106	-0.39282780	10.12560251	-10.70920982	-4.17477723	10.95688282	-0.44216145	0.12312045	9.94968223	1.63028045	-2.13625088	17.99802760	-1.78328206	-5.79360274	5.06614086	1.05440981	11.32606884
2777	27.76000000	-10.15801504	0.16460419	6.66912994	10.33112044	0.06440219	1.39846975	6.82892028	1.73057231	-0.77339673	8.47389416	-9.10912414	-4.22593021	10.81942207	-0.01456925	0.01464765	9.94494323	1.98592304	-2.20388499	14.43082681	-9.79931051	-15.56496501	5.37885826	1.02507360	11.12410216
2778	27.77000000	-10.22253669	0.29726680	6.64542043	10.62565631	-0.16548064	1.96010556	8.44006417	0.76972140	-1.44352917	7.12484997	-7.58082816	-3.06803728	11.15928203	0.29640059	-0.19517700	9.96236386	2.64812222	-2.49729478	16.55945854	-4.18918388	-28.68670394	5.55446136	0.95491952	11.14467783
2779	27.78000000	-10.58708020	0.35582286	7.17784638	10.57062193	-0.39649215	1.89636592	9.18237971	-1.14205737	-2.22850999	5.37430238	-6.39505753	-2.83395597	11.72810425	0.36531876	-0.16916054	9.97679128	3.43855858	-2.73976301	12.85638193	11.78225786	-9.27029233	5.31711623	1.06848410	11.30667624
2780	27.79000000	-11.60963488	0.32414149	7.48060492	10.60489459	-0.41641873	2.50558352	9.02647210	0.88595447	-2.89833672	5.16240343	-5.43192372	-2.53023151	11.94061203	0.22327896	-0.03774944	10.01267756	3.44193126	-3.10848234	14.33750334	11.93269714	16.58977449	4.94293050	1.30744896	11.63826969
2781	27.80000000	-12.14368391	0.28444786	7.26550333	11.16506355	0.04994816	3.87722003	11.21759565	1.78492807	2.94164826	8.70306233	-4.38623561	-1.56007731	12.02604135	-0.20479803	-0.17732898	10.21730769	2.48219929	-3.41106264	12.38610451	15.72608647	16.81610278	4.84075632	1.52395823	11.67502047
2782	27.81000000	-11.44788446	0.26768508	6.97564146	11.64704851	0.72935431	4.29925690	14.92837827	-2.42372458	8.76217559	12.39685593	-3.20343087	-1.10050136	12.42853301	-0.47582990	-0.48474539	10.83424272	1.53002318	-3.30309059	-2.57360121	12.57034136	8.98764219	5.14716178	1.81589238	11.71483686
2783	27.82000000	-11.02865199	0.35685238	7.13040261	11.62944359	1.26350302	3.57115001	16.60193170	-2.14247296	6.17313799	13.35870849	-2.12174657	0.85640107	12.79628789	0.02809433	-0.16205516	11.55627700	0.88989460	-2.90247441	3.85945859	-2.53408849	5.62534311	5.06589631	2.29084988	12.12266279
2784	27.83000000	-12.09125381	0.64942438	7.36982088	11.66383911	1.43763419	3.37163100	13.50023404	2.56376246	1.41207666	13.35713132	-0.94551168	4.43797194	12.46011694	0.92982649	0.48515075	11.73696330	0.38256512	-2.28102250	28.68016800	-4.16412054	23.62458524	4.55908506	2.81799209	12.20828934
2785	27.84000000	-12.76621093	1.09268970	6.97388343	12.15901273	0.94177759	4.91796780	11.54948871	4.98237152	-0.46032161	13.71378931	-0.73096583	4.98848558	12.15583627	1.43349998	0.48806144	11.43527970	0.41345889	-1.80994599	32.09722296	7.44180745	17.37187592	4.54465887	2.64378708	12.34392370
2786	27.85000000	-11.81251257	1.47792045	6.45983270	12.31269075	0.82851334	5.69481882	11.76571230	7.56677416	-0.15896089	12.85178960	-2.52968286	0.74093761	12.85942225	1.20790009	0.46043949	11.61423209	0.96233766	-1.53250099	3.74095893	6.71235937	4.74238530	5.22802628	2.18963103	12.69014052
2787	27.86000000	-10.75724415	1.71238248	6.00576177	11.96818287	0.96289160	4.70219153	10.16348755	10.33299520	-0.28075457	11.40065170	-3.46396542	-2.57473453	13.86309959	1.08354953	1.20237476	12.09600243	1.21472979	-1.43117852	5.90857832	1.66079819	15.43376486	5.92388704	2.37662267	12.11265368
2788	27.87000000	-10.31820229	1.79494619	5.48245471	11.36359251	0.58733731	4.30409769	9.85829325	10.05309375	-1.68352515	11.59983090	-1.88093082	0.09064164	13.77223491	1.20990397	1.85117322	11.67326036	1.24334510	-1.27698971	5.74008336	2.39647373	4.28815124	6.73540663	2.74827335	12.86740279
2789	27.88000000	-10.35053543	1.87942248	5.37535891	10.75936923	0.00727351	4.25123149	7.46478225	9.09724894	-4.53161944	10.82688084	0.60249417	2.48361642	13.35895551	1.07583848	1.26490709	10.92715223	1.25520287	-0.82669992	6.30446022	2.51073683	9.58513343	6.84765061	3.09519773	13.61456130
2790	27.89000000	-10.50721026	1.98359696	5.41862915	10.53180170	-0.24593847	4.42741578	3.20972171	10.10892496	-5.63911325	10.33500382	2.58290002	0.35455041	13.13705516	0.69471238	0.47411955	10.69346861	1.12328055	-0.63237828	5.90828874	0.05489748	8.42740408	8.43255161	2.32733788	13.40326757
2791	27.90000000	-10.37669519	2.05843453	5.44804926	10.53684384	0.03815322	4.96664504	6.37018469	10.26032385	-2.64887514	10.70185924	3.03503560	-0.52607530	12.97412733	-0.60586226	-0.28251821	10.63399331	0.67766190	-1.12135999	6.47265513	0.68605436	8.03474545	9.90945636	-0.61195765	11.83708406
2792	27.91000000	-9.86126419	2.10547705	5.35429297	10.52801162	0.64477750	5.39530703	9.70816634	5.98442399	-1.53094616	10.51439219	2.59515801	-0.00444122	13.04902023	-2.65868649	-0.59790484	10.35691834	0.08072378	-1.78414691	5.42800487	1.76085990	8.70114558	12.34400875	0.75758102	11.11021273
2793	27.92000000	-9.33003444	2.07580107	5.30337759	10.29742707	1.23090143	5.33388086	11.37127620	1.57672056	-1.52398436	10.46725351	1.89552306	-0.38075725	12.39022155	-4.62115842	-0.44323178	10.22361092	-0.38932926	-2.03099942	5.52141540	1.52641266	8.68228069	14.27590932	6.38743238	15.16835244
2794	27.93000000	-8.98348950	1.98825509	5.35995010	9.90836240	1.53850028	5.10250606	12.15641749	0.78247697	-1.80282033	10.64922047	1.09575065	-0.57791081	11.21905559	-6.21867672	-0.93780528	10.48208416	-0.96709450	-2.13854925	5.50308401	1.56529213	8.53698618	11.36622389	5.15519217	13.38296457
2795	27.94000000	-8.87966834	1.82410274	5.47639743	9.55471231	1.59770184	4.91943868	12.16028166	3.96016625	-1.26227901	10.56466744	0.11650683	-0.53020791	9.91101875	-7.00688392	-0.60822639	10.70946012	-1.32614572	-1.76017325	5.27577319	1.88106355	8.48996772	13.79355146	3.93330552	14.58408359
2796	27.95000000	-8.96356377	1.69990249	5.53339764	9.14000529	1.54661227	4.80337944	11.63655142	5.87137433	-1.37193865	10.74127042	-1.10584628	-0.25087911	8.13344101	-8.93043918	-0.07557378	10.77437410	-1.40899977	-1.34687802	5.16964405	1.66287588	8.64969815	7.80951593	2.51582934	21.88976498
2797	27.96000000	-9.15531938	1.60688265	5.67196737	8.76908863	1.33989426	4.64011079	9.12662070	4.96453390	-2.09273093	10.42951345	-2.17268166	-0.14191814	6.65775123	-10.29747147	-1.73702159	11.17704478	-1.45941383	-0.95898918	5.12645950	0.77001356	8.64695344	7.68300700	-1.84243362	26.44536395
2798	27.97000000	-9.18051856	1.45561164	5.73921196	8.68034859	1.11769823	4.61048233	7.51173716	3.83037733	-1.33742615	9.52454918	-2.35180681	-0.45662098	4.49622003	-8.54892993	-1.07543269	12.05711610	-1.53156064	-0.66702206	5.16758874	0.88149161	8.53813033	9.01140184	3.17453422	21.88162070
2799	27.98000000	-8.93086131	1.26243746	5.66446585	8.74859803	0.92722779	4.42269225	8.45036009	3.18403763	-0.53133723	8.99302458	-1.44883979	-0.37218590	0.83114085	-6.41892481	1.56786846	12.98869244	-1.47665140	-0.56179595	5.20381355	1.48106449	8.59320729	-6.33415951	8.16746345	15.23572226
2800	27.99000000	-8.51706171	1.00406441	5.51325446	8.86144206	0.87208227	4.12365978	10.31367151	2.37366911	-0.33683034	8.91884224	0.03724490	0.09638429	-0.97422414	-5.00236425	3.20653054	13.06814734	-1.65677226	-0.86764507	5.36291536	1.65708738	8.45200527	-6.42889787	8.20965870	13.58843211
2801	28	-8.20696505	0.79584904	5.37592864	8.76816450	0.99024037	3.94938032	10.97352939	2.42627912	-0.55070637	9.01381238	1.28131517	0.43388062	0.14581444	-4.36099671	5.42413360	11.75463267	-2.14534038	-0.92558449	5.12328665	1.50622619	8.46687639	-4.73350019	7.65912247	12.08952402
2802	28.01000000	-8.07291309	0.70913408	5.34724941	8.57370066	1.12238154	3.83192561	10.18027653	2.84859202	-0.76281120	8.89693933	1.94688472	0.29705310	1.68348434	-3.17368199	6.40735319	10.15587513	-2.76274108	-0.64878738	5.02682378	1.18854777	8.54383102	-4.82025203	8.17492320	11.01897892
2803	28.02000000	-7.96670229	0.68241068	5.31363515	8.43771923	1.26897915	3.83950796	9.24094582	2.71841887	-0.82770859	8.70993268	2.17652458	0.10224222	2.81974385	-1.01290326	6.21671830	9.20159749	-3.18001788	-0.53612327	5.36225260	1.16854950	8.34914307	-5.82290179	9.27873000	10.11294167
2804	28.03000000	-7.73585353	0.68233362	5.34086638	8.24019712	1.41506651	3.86709354	8.96139134	2.26060597	-0.60550985	8.66070224	1.98551019	0.15246396	3.59209806	1.25151242	6.01108867	8.78545077	-2.73327162	-0.58542413	5.56499712	1.28133218	8.19822015	-5.63542757	8.95638682	9.50063885
2805	28.04000000	-7.53426268	0.70954641	5.35040430	7.99833992	1.57478875	3.90327394	9.05062058	1.91563781	-0.37881747	8.76105540	1.38459037	0.11487892	4.36875058	2.72104803	6.03747379	8.65731156	-1.99502808	-0.58760624	4.86277778	1.28732987	8.50786615	-3.67742142	7.76623841	10.05340079
2806	28.05000000	-7.56938654	0.80451460	5.35399320	7.76104945	1.70293015	3.98492670	9.46079712	1.47522932	-0.28888390	9.05673168	0.66163289	0.06459212	5.27073970	2.94464511	5.54817802	8.65589524	-1.29480448	-0.48419690	4.85793286	1.17561604	8.65099879	-1.54933501	6.81280189	10.68487888
2807	28.06000000	-7.58621754	0.89946537	5.36199487	7.65339864	1.80737191	3.95566153	9.69384244	1.16755139	-0.21145319	9.16873012	-0.15916469	-0.22797564	5.63078181	1.84829434	4.27121078	8.56896634	-0.46516046	-0.43538368	4.96271826	1.27351296	8.49626838	-0.00814072	6.55099167	11.38580541
2808	28.07000000	-7.57227276	0.97824735	5.42538166	7.62581143	1.86094178	3.90799077	9.69247245	1.38883681	-0.05651761	9.15093909	-1.02391841	-0.33165719	5.68244096	-0.19503963	2.64401006	8.44651511	0.06762258	-0.51268482	5.06062186	1.33416323	8.40873967	1.19085591	5.26557375	11.92158112
2809	28.08000000	-7.52792064	1.04459445	5.52659976	7.66395895	1.84889526	3.94145019	9.60168793	1.59765754	0.11155201	9.04492631	-1.60989118	0.00294509	6.13052976	-2.58625563	1.04842261	8.36262949	0.26584863	-0.50487019	4.91304729	1.37669918	8.52288003	2.53975273	3.23416352	12.28775686
2810	28.09000000	-7.59137679	1.13797170	5.53294587	7.68115713	1.82308372	3.95529959	9.48246916	1.39724076	0.36905297	8.90933857	-1.82158676	0.04683999	7.27477121	-4.55797245	-0.18501523	8.24110680	0.48408401	-0.43351917	4.98735309	1.43578387	8.45603022	3.50480990	1.88480229	12.54980307
2811	28.10000000	-7.76638075	1.20831010	5.48642982	7.71266729	1.75332961	3.91350237	9.57128610	0.96343602	0.35120125	8.93742546	-1.81678477	-0.10247351	8.67369745	-5.69111572	-1.00899210	8.17504054	0.72793028	-0.46502026	5.01242895	1.48867026	8.51489791	4.05827080	1.10234780	12.91227179
